<svg viewBox="0 0 280 224" xmlns="http://www.w3.org/2000/svg" xmlns:serif="http://www.serif.com/" fill-rule="evenodd" clip-rule="evenodd" stroke-linejoin="round" stroke-miterlimit="1.414">
  <path fill="none" d="M0 0h279.64v223.3H0z"/>
  <clipPath id="a">
    <path serif:id="Artboard1" d="M0 0h279.64v223.3H0z"/>
  </clipPath>
  <g clip-path="url(#a)">
    <path d="M279.64 15.425C279.64 6.905 272.73 0 264.212 0H15.425C6.905 0 0 6.906 0 15.425v192.45c0 8.52 6.906 15.426 15.425 15.426h248.788c8.52 0 15.426-6.9 15.426-15.42V15.43z" fill="#616161"/>
    <path d="M86.84 53.52c0-1.053-.417-2.063-1.162-2.808-.744-.744-1.754-1.162-2.807-1.162H58.91c-1.053 0-2.063.418-2.807 1.162-.744.745-1.162 1.755-1.162 2.808v116.26c0 1.054.42 2.064 1.17 2.808.75.745 1.76 1.163 2.81 1.163h23.95c1.06 0 2.07-.41 2.81-1.16.75-.74 1.168-1.75 1.168-2.8V53.52zm45.99 0c0-1.053-.42-2.063-1.164-2.808-.744-.744-1.754-1.162-2.807-1.162h-23.97c-1.06 0-2.07.418-2.81 1.162-.75.745-1.17 1.755-1.17 2.808v116.26c0 1.054.415 2.064 1.16 2.808.743.745 1.753 1.163 2.806 1.163h23.963c1.05 0 2.06-.41 2.805-1.16.743-.74 1.16-1.75 1.16-2.8V53.52zm45.987 0c0-1.053-.418-2.063-1.163-2.808-.744-.744-1.754-1.162-2.807-1.162h-23.964c-1.053 0-2.063.418-2.807 1.162-.745.745-1.163 1.755-1.163 2.808v116.26c0 1.054.418 2.064 1.163 2.808.744.745 1.754 1.163 2.807 1.163h23.964c1.053 0 2.063-.41 2.807-1.16.745-.74 1.163-1.75 1.163-2.8V53.52zm45.988 0c0-2.193-1.777-3.97-3.97-3.97H196.87c-2.192 0-3.97 1.777-3.97 3.97v45.817c0 2.193 1.778 3.97 3.97 3.97h23.965c2.193 0 3.97-1.777 3.97-3.97V53.52zm0 70.444c0-2.193-1.777-3.97-3.97-3.97H196.87c-2.192 0-3.97 1.777-3.97 3.97v45.817c0 2.2 1.778 3.97 3.97 3.97h23.965c2.193 0 3.97-1.77 3.97-3.97v-45.81z" fill="#009688"/>
  </g>
</svg>
